<?xml version="1.0" standalone="no"?>
<!DOCTYPE svg PUBLIC "-//W3C//DTD SVG 20010904//EN"
 "http://www.w3.org/TR/2001/REC-SVG-20010904/DTD/svg10.dtd">
<svg version="1.0" xmlns="http://www.w3.org/2000/svg"
 width="1456.000000pt" height="1456.000000pt" viewBox="0 0 1456.000000 1456.000000"
 preserveAspectRatio="xMidYMid meet">
<metadata>
Created by potrace 1.11, written by Peter Selinger 2001-2013
</metadata>
<g transform="translate(0.000000,1456.000000) scale(0.100000,-0.100000)"
fill="#000000" stroke="none">
<path d="M7369 14535 c-3 -2 -16 -6 -29 -8 -14 -2 -34 -7 -45 -12 -69 -27
-107 -46 -121 -59 -8 -9 -21 -19 -27 -23 -31 -20 -141 -183 -123 -183 2 0 -2
-17 -9 -37 -17 -48 -10 -63 29 -63 17 0 48 -4 69 -9 32 -8 39 -6 44 7 54 161
136 225 292 228 45 1 99 -3 118 -8 20 -5 43 -11 52 -13 36 -7 152 -56 236 -99
106 -55 103 -54 219 -131 49 -33 96 -64 104 -70 26 -17 65 -49 94 -78 25 -24
98 -131 98 -142 0 -2 14 -35 31 -72 18 -38 32 -74 32 -80 0 -7 4 -13 9 -13 4
0 7 -3 6 -7 -1 -5 8 -39 20 -78 30 -100 63 -225 68 -260 4 -33 12 -70 14 -70
1 0 3 -9 4 -20 2 -11 6 -40 11 -65 4 -25 9 -52 10 -60 1 -8 6 -42 10 -75 4
-32 9 -68 11 -78 2 -10 6 -46 9 -80 4 -34 8 -77 10 -95 6 -50 17 -219 20 -305
1 -42 5 -80 8 -84 4 -3 2 -12 -4 -20 -6 -7 -7 -13 -3 -13 5 0 9 -131 10 -295
l0 -295 -25 4 c-14 2 -26 5 -26 6 0 1 -13 4 -30 6 -16 3 -35 10 -42 16 -7 6
-13 8 -13 5 0 -4 -19 0 -41 9 -23 8 -51 16 -63 19 -12 2 -41 9 -66 16 -25 6
-53 13 -62 15 -10 2 -27 6 -38 9 -36 9 -113 25 -190 40 -14 3 -34 7 -45 9 -60
12 -225 39 -260 42 -22 2 -56 6 -75 9 -40 5 -142 15 -212 20 -26 2 -52 6 -58
10 -5 3 -10 2 -10 -4 0 -7 -8 -7 -23 -2 -22 9 -578 7 -675 -2 -29 -3 -85 -8
-125 -11 -39 -4 -92 -9 -117 -13 -25 -3 -56 -7 -70 -8 -14 -2 -25 -4 -25 -5 0
-1 -13 -3 -30 -4 -42 -4 -103 -14 -220 -37 -115 -23 -131 -27 -165 -35 -14 -3
-34 -7 -45 -9 -19 -4 -217 -57 -280 -75 -16 -5 -48 -14 -70 -20 -45 -13 -120
-38 -150 -50 -11 -5 -60 -23 -110 -40 -49 -17 -103 -37 -120 -44 -16 -8 -50
-22 -75 -31 -49 -18 -45 -16 -237 -103 l-132 -60 -40 47 c-23 26 -51 59 -63
73 -13 13 -49 54 -81 91 l-59 67 -44 -42 c-24 -22 -52 -47 -63 -55 -26 -17
-229 -221 -299 -299 -30 -32 -71 -78 -93 -101 -21 -23 -39 -44 -39 -48 0 -3
-12 -18 -26 -33 -14 -15 -58 -70 -97 -122 -40 -52 -74 -97 -77 -100 -14 -13
-153 -216 -214 -315 -38 -60 -80 -126 -93 -146 -12 -19 -23 -38 -23 -41 0 -3
-22 -43 -48 -89 -27 -46 -59 -106 -73 -134 -13 -27 -27 -52 -30 -55 -3 -3 -12
-22 -18 -42 -7 -21 -17 -38 -22 -38 -5 0 -9 -5 -9 -11 0 -6 -16 -46 -36 -88
-61 -130 -154 -357 -190 -466 -85 -253 -105 -313 -109 -330 -2 -11 -4 -20 -5
-20 -1 0 -3 -7 -5 -15 -1 -8 -14 -55 -28 -105 -25 -90 -40 -152 -37 -157 1 -2
-3 -15 -8 -29 -6 -14 -13 -43 -17 -65 -8 -45 -13 -69 -15 -69 -1 0 -3 -12 -5
-28 -2 -15 -8 -51 -14 -80 -6 -28 -13 -70 -17 -92 -3 -22 -7 -47 -9 -55 -2 -8
-7 -37 -11 -65 -3 -27 -8 -58 -10 -69 -5 -25 -16 -124 -19 -166 -2 -19 -4 -35
-5 -35 -1 0 -3 -22 -5 -50 -1 -27 -6 -93 -10 -145 -4 -52 -8 -133 -9 -180 -1
-47 -6 -91 -10 -98 -4 -7 -3 -12 2 -12 4 0 6 -22 2 -50 -4 -27 -4 -50 -1 -50
8 0 4 -87 -4 -100 -3 -5 -3 -10 2 -10 12 0 10 -94 -2 -102 -7 -5 -7 -8 0 -8 6
0 11 -32 12 -72 2 -105 11 -206 17 -217 4 -5 2 -12 -4 -16 -6 -4 -7 -12 -3
-18 4 -7 8 -23 9 -37 5 -59 15 -158 19 -190 3 -19 7 -55 10 -80 2 -25 6 -56 9
-70 2 -14 7 -45 11 -70 10 -67 12 -80 24 -145 12 -69 20 -109 27 -145 3 -14 7
-36 9 -50 2 -14 4 -25 5 -25 1 0 3 -7 5 -15 2 -8 6 -28 10 -45 3 -16 8 -39 10
-50 2 -11 13 -58 25 -105 13 -47 24 -92 25 -100 1 -8 8 -35 15 -60 7 -25 14
-50 16 -56 1 -6 10 -38 20 -70 9 -33 18 -65 20 -71 1 -7 12 -43 24 -80 12 -38
24 -75 26 -83 4 -19 51 -153 103 -295 80 -221 148 -386 272 -655 69 -151 250
-505 260 -508 5 -2 9 -9 9 -17 0 -7 28 -62 63 -122 35 -60 67 -116 70 -124 4
-8 15 -26 25 -41 32 -50 72 -121 72 -129 0 -5 4 -9 9 -9 5 0 15 -12 22 -27 26
-51 73 -128 91 -147 10 -11 18 -23 18 -27 0 -11 202 -313 212 -317 4 -2 8 -9
8 -16 0 -7 8 -21 18 -32 9 -10 51 -68 92 -127 41 -60 80 -114 85 -120 6 -7 39
-50 74 -97 95 -127 215 -284 221 -290 5 -5 85 -102 105 -128 6 -7 15 -18 20
-25 6 -7 26 -32 46 -57 20 -25 46 -55 57 -68 11 -13 35 -41 54 -64 18 -23 44
-53 58 -68 14 -15 41 -47 61 -71 21 -24 48 -56 60 -70 13 -14 49 -54 79 -89
85 -98 77 -93 112 -62 17 15 38 34 47 42 9 8 28 25 42 38 l27 24 18 -54 c10
-29 19 -55 19 -58 1 -3 11 -36 23 -75 28 -94 50 -176 68 -255 21 -97 24 -111
29 -155 3 -22 7 -51 10 -65 26 -128 35 -361 21 -540 -9 -109 -10 -116 -32
-225 -10 -51 -11 -54 -14 -60 -1 -3 -4 -9 -5 -15 -1 -5 -4 -12 -5 -15 -1 -3
-3 -8 -4 -12 -3 -12 -37 -104 -57 -151 l-18 -42 52 -1 c68 -1 3209 -1 3267 0
l45 1 -3 42 c-4 63 -3 110 2 115 3 3 1 16 -4 29 -6 14 -6 26 0 29 5 3 6 13 3
21 -3 9 -6 30 -7 48 l-1 31 -1440 2 c-792 1 -1448 2 -1459 2 -17 1 -18 7 -12
58 16 154 19 196 19 303 0 106 -9 284 -19 355 -8 58 -34 215 -39 235 -2 8 -19
104 -20 112 0 3 -3 10 -7 14 -5 4 -8 16 -8 26 0 21 -9 54 -77 268 -25 80 -54
162 -65 183 -10 20 -16 37 -12 37 4 0 0 7 -7 16 -14 17 12 45 160 173 28 25
51 48 51 51 0 4 -8 16 -17 27 -39 44 -129 146 -138 157 -6 6 -39 45 -75 87
-36 41 -82 95 -103 120 -59 68 -336 414 -408 509 -35 47 -69 91 -76 98 -7 7
-13 17 -13 21 0 4 -8 16 -18 27 -17 18 -39 49 -158 219 -26 39 -52 71 -56 73
-4 2 -8 9 -8 17 0 7 -7 18 -16 26 -8 7 -24 29 -34 48 -10 20 -30 50 -44 66
-14 17 -26 34 -26 38 0 8 -58 97 -69 107 -3 3 -13 19 -21 35 -8 17 -17 32 -20
35 -12 12 -70 112 -70 121 0 5 -3 9 -8 9 -4 0 -18 21 -32 48 -14 26 -35 62
-48 80 -13 17 -20 32 -17 32 4 0 -3 12 -14 26 -12 15 -21 32 -21 40 0 7 -4 14
-8 16 -31 12 -337 635 -447 909 -25 63 -50 123 -54 134 -5 11 -14 34 -21 50
-14 34 -97 267 -98 275 0 3 -3 12 -6 20 -20 61 -38 117 -41 130 -2 8 -10 34
-19 58 -8 23 -15 43 -15 45 0 1 -2 9 -4 17 -6 17 -31 111 -33 123 -1 4 -2 8
-4 10 -1 1 -3 9 -5 17 -11 53 -16 73 -35 145 -11 44 -21 91 -22 105 -1 14 -4
30 -7 35 -6 11 -9 25 -16 69 -2 15 -7 35 -9 45 -3 9 -8 31 -11 49 -3 17 -7 47
-10 65 -3 17 -8 39 -10 47 -2 8 -7 35 -10 60 -7 62 -15 119 -20 149 -7 45 -16
134 -20 201 -3 36 -5 67 -6 70 -5 12 -8 77 -13 258 -3 106 -9 198 -12 204 -4
6 -3 9 2 6 5 -4 9 44 10 110 1 118 11 306 19 352 2 14 7 57 10 95 3 39 7 77 9
85 3 8 7 38 11 65 3 28 8 59 11 70 2 11 6 36 9 55 5 38 12 75 15 75 1 0 3 11
5 25 1 14 6 39 9 55 4 17 9 39 11 50 8 46 16 81 21 97 3 9 7 25 9 35 2 10 13
54 25 98 12 44 23 87 25 95 4 22 101 309 116 345 6 17 13 37 15 45 2 8 7 23
13 35 5 11 20 47 33 80 12 33 26 62 29 65 3 3 10 16 14 30 4 13 24 58 43 100
20 41 36 77 37 80 0 3 14 30 29 60 69 133 110 206 120 212 6 4 8 8 3 8 -4 0
15 35 41 78 27 42 55 88 63 101 27 46 150 226 169 249 11 12 20 27 20 32 0 6
5 10 10 10 6 0 10 6 10 14 0 8 3 16 8 18 4 2 23 23 42 48 19 25 37 47 40 50 3
3 38 45 79 94 84 101 277 297 363 370 64 53 64 49 2 119 -16 18 -55 62 -86 98
l-57 66 47 22 c26 12 50 21 53 19 4 -2 16 6 28 16 12 11 21 17 21 13 0 -3 26
7 58 23 127 61 480 187 672 239 47 13 92 26 100 29 8 3 24 7 34 9 11 2 45 10
75 18 31 8 67 16 81 19 14 3 36 8 50 11 29 7 52 12 100 20 19 3 58 10 85 15
28 5 73 12 100 15 28 3 63 9 80 12 16 3 47 7 70 9 22 1 58 5 80 8 120 16 228
20 485 21 157 0 328 -4 380 -8 52 -5 120 -11 150 -13 52 -4 115 -13 220 -30
25 -3 60 -7 77 -8 18 0 33 -5 33 -9 0 -4 6 -7 13 -5 6 1 33 -1 59 -6 26 -4 50
-7 53 -7 2 0 19 -5 37 -10 18 -6 49 -13 68 -16 19 -3 69 -14 110 -25 41 -11
82 -21 90 -23 15 -4 137 -38 200 -56 19 -6 46 -13 60 -16 14 -3 28 -10 31 -16
9 -13 -1 -318 -15 -482 -3 -27 -7 -90 -11 -138 -3 -48 -8 -105 -10 -127 -2
-21 -6 -74 -10 -117 -3 -43 -7 -94 -10 -113 -4 -20 -8 -62 -11 -95 -3 -33 -6
-76 -8 -95 -10 -91 -16 -149 -22 -195 -3 -27 -7 -66 -9 -85 -2 -19 -4 -35 -5
-35 -1 0 -3 -16 -5 -35 -3 -34 -12 -111 -20 -160 -2 -14 -6 -47 -9 -75 -4 -27
-8 -66 -11 -85 -8 -57 -16 -113 -20 -145 -2 -16 -6 -43 -10 -60 -3 -16 -8 -50
-10 -75 -2 -25 -7 -56 -10 -70 -6 -25 -8 -40 -21 -135 -3 -27 -8 -59 -10 -70
-5 -22 -12 -63 -20 -110 -3 -16 -7 -46 -9 -65 -4 -32 -7 -51 -20 -120 -3 -14
-8 -42 -11 -64 -3 -21 -8 -48 -10 -60 -3 -11 -7 -37 -10 -56 -2 -19 -11 -71
-19 -115 -9 -45 -17 -95 -19 -113 -3 -17 -7 -35 -9 -39 -3 -4 -8 -30 -12 -58
-9 -59 -12 -80 -20 -117 -3 -16 -7 -38 -9 -50 -2 -13 -11 -57 -20 -98 -8 -41
-17 -88 -19 -105 -3 -16 -8 -41 -11 -55 -5 -23 -9 -41 -22 -110 -3 -14 -7 -36
-9 -50 -1 -14 -4 -26 -5 -27 -1 -2 -4 -12 -5 -23 -1 -11 -3 -21 -5 -22 -3 -4
-11 -40 -14 -68 -2 -14 -16 -78 -30 -143 -14 -65 -28 -131 -31 -145 -3 -15 -7
-38 -10 -52 -9 -39 -15 -63 -19 -85 -2 -11 -7 -31 -10 -45 -3 -14 -8 -36 -10
-50 -2 -14 -13 -63 -25 -110 -11 -47 -22 -97 -25 -110 -10 -49 -16 -75 -23
-105 -4 -16 -8 -34 -9 -40 -1 -5 -3 -12 -4 -15 -1 -3 -3 -14 -5 -25 -8 -40
-65 -281 -74 -312 -5 -18 -8 -33 -6 -33 3 0 0 -11 -5 -26 -6 -14 -12 -39 -15
-56 -3 -17 -9 -36 -12 -42 -4 -5 -7 -19 -8 -30 -3 -27 -31 -148 -100 -421 -31
-121 -57 -229 -58 -240 -1 -11 -4 -22 -7 -25 -5 -5 -86 -319 -96 -375 -3 -16
-10 -38 -15 -47 -5 -10 -7 -18 -4 -18 3 0 1 -8 -4 -17 -5 -10 -11 -31 -14 -48
-2 -16 -14 -61 -25 -100 -11 -38 -23 -83 -28 -100 -4 -16 -8 -34 -10 -40 -2
-5 -5 -19 -8 -30 -3 -11 -16 -60 -29 -110 -14 -49 -32 -119 -42 -155 -9 -36
-20 -72 -23 -80 -7 -20 -10 -31 -15 -55 -6 -26 -30 -112 -57 -205 -12 -41 -31
-106 -41 -145 -11 -38 -21 -74 -23 -80 -1 -5 -8 -30 -15 -55 -7 -25 -17 -58
-22 -75 -5 -16 -27 -95 -50 -175 -22 -80 -47 -165 -56 -190 -8 -25 -17 -54
-19 -65 -2 -11 -13 -51 -25 -90 -22 -73 -47 -159 -54 -185 -2 -8 -7 -26 -11
-39 -5 -17 -4 -22 4 -17 6 4 31 9 54 11 36 4 366 65 433 80 11 2 31 6 45 8 47
9 345 79 353 84 4 2 20 7 35 9 32 6 200 52 222 61 8 3 20 7 25 8 40 10 108 30
215 66 69 22 130 41 135 43 6 1 15 4 20 7 14 8 68 23 78 21 4 -1 7 2 7 8 0 6
3 9 8 8 7 -3 146 44 187 63 11 5 49 20 85 33 81 30 304 124 385 161 179 82
527 259 595 303 14 9 27 17 30 17 6 0 98 56 140 85 14 9 41 25 60 35 19 10 37
21 40 24 3 4 37 27 75 51 39 25 75 48 80 53 6 4 66 48 134 98 69 50 131 97
138 103 7 6 27 22 44 36 182 143 433 385 579 560 25 29 50 58 55 64 6 6 37 47
70 91 33 44 63 82 68 83 4 2 7 10 7 17 0 8 6 20 13 27 22 22 97 136 97 147 0
6 4 11 9 11 5 0 13 10 17 23 3 12 12 29 19 37 22 27 126 232 167 330 21 52 44
103 49 114 6 10 12 26 14 35 3 9 18 57 36 106 17 50 32 97 34 105 2 8 18 69
35 135 16 66 32 138 35 160 3 22 7 51 10 65 11 64 16 98 20 140 2 25 7 74 11
110 8 80 12 481 5 495 -3 5 -6 26 -7 45 -5 72 -13 166 -18 190 -3 14 -8 48
-12 75 -10 78 -21 148 -29 175 -2 8 -6 26 -9 40 -2 14 -14 68 -27 120 -13 52
-24 98 -25 103 -1 4 -3 9 -4 12 -1 3 -3 13 -5 23 -1 9 -4 24 -8 32 -3 8 -22
69 -42 135 -20 66 -39 127 -42 135 -4 8 -7 18 -8 23 -2 4 -3 8 -5 10 -1 1 -3
9 -5 17 -9 38 -89 235 -97 238 -4 2 -6 8 -3 12 3 5 1 17 -4 27 -9 16 -31 64
-81 178 -10 22 -29 66 -44 97 -15 32 -26 61 -25 64 0 4 -3 10 -8 13 -5 3 -38
65 -74 136 -37 72 -76 146 -87 165 -11 19 -35 62 -53 95 -17 33 -40 72 -50 87
-11 14 -19 29 -19 34 0 4 -11 22 -25 40 -14 18 -25 35 -25 38 0 3 -35 59 -77
126 -43 67 -82 129 -88 139 -19 33 -110 166 -122 179 -7 7 -13 17 -13 22 0 5
-6 15 -13 22 -7 7 -28 36 -47 63 -19 28 -37 52 -42 53 -4 2 -8 10 -8 18 0 8
-4 14 -10 14 -5 0 -10 6 -10 14 0 8 -4 16 -8 18 -5 2 -33 37 -63 78 -29 41
-64 86 -76 100 -13 14 -23 28 -23 32 0 3 -6 13 -13 20 -7 7 -43 54 -82 103
-86 112 -120 145 -266 254 -152 113 -166 123 -198 141 -14 8 -28 18 -31 21
-11 13 -242 150 -340 201 -167 88 -195 102 -200 103 -3 0 -44 19 -92 43 -48
23 -89 42 -93 42 -4 0 -71 27 -220 90 -56 23 -103 38 -107 34 -3 -2 -11 2 -18
11 -10 12 -13 98 -16 358 -1 188 -5 385 -8 437 -9 149 -22 311 -32 385 -3 28
-7 65 -7 83 -1 17 -4 32 -7 32 -3 0 -6 17 -6 38 -1 20 -4 54 -8 75 -3 20 -8
52 -11 70 -5 33 -7 44 -25 132 -6 28 -12 59 -14 70 -4 16 -29 122 -41 170 -1
6 -5 17 -8 25 -4 12 -38 115 -51 155 -20 64 -93 212 -136 274 -51 76 -85 109
-180 176 -152 107 -271 181 -380 236 -52 26 -133 58 -185 74 -33 9 -71 21 -85
25 -28 9 -21 9 -151 15 -53 2 -98 3 -100 0z"/>
<path d="M8310 1730 c-8 -5 -42 -19 -75 -31 -33 -12 -69 -26 -80 -30 -24 -11
-244 -88 -265 -94 -8 -2 -69 -21 -135 -43 -66 -22 -154 -49 -195 -61 -41 -13
-86 -26 -100 -31 -30 -10 -254 -67 -290 -74 -14 -2 -25 -5 -25 -6 0 -2 -14 -5
-55 -13 -260 -52 -283 -55 -385 -62 -33 -2 -60 -4 -60 -5 0 -1 -21 -3 -47 -4
-32 -2 -45 1 -41 8 5 8 3 8 -8 1 -12 -9 -34 -11 -49 -5 -3 1 -18 3 -35 4 -16
2 -44 6 -62 10 -30 7 -36 3 -83 -45 -27 -30 -50 -57 -50 -62 0 -9 78 -46 113
-53 91 -18 197 -21 327 -9 84 7 125 12 125 15 0 1 86 11 123 13 12 1 22 4 22
7 0 3 16 7 37 8 20 2 41 6 46 9 6 3 22 7 36 9 14 1 35 5 46 8 66 17 193 48
212 52 12 2 35 9 50 15 16 6 29 10 31 10 1 -1 3 -1 5 0 2 0 22 5 50 12 30 7
134 40 157 49 14 6 36 12 49 15 13 2 48 12 77 23 29 10 55 15 58 12 3 -3 6 0
6 6 0 7 3 11 8 10 13 -3 97 24 111 35 8 7 17 11 20 10 7 -3 92 23 136 41 17 7
73 28 125 46 52 18 100 36 105 40 6 4 22 10 37 14 29 7 29 11 1 76 -3 8 -7 17
-8 20 -20 58 -33 69 -65 50z"/>
<path d="M8320 1173 c-8 -3 -28 -11 -45 -18 -46 -19 -99 -40 -105 -40 -3 0 -9
-3 -15 -6 -17 -10 -120 -43 -127 -41 -5 1 -8 -2 -8 -6 0 -5 -6 -9 -12 -10 -21
-2 -42 -7 -53 -14 -11 -6 -233 -79 -250 -82 -5 -1 -16 -5 -22 -9 -7 -5 -13 -6
-13 -2 0 3 -10 0 -22 -7 -24 -13 -27 -14 -69 -22 -14 -3 -45 -12 -68 -20 -22
-9 -41 -13 -41 -9 0 3 -6 1 -12 -4 -7 -6 -31 -14 -53 -18 -45 -9 -44 -9 -65
-18 -22 -9 -231 -58 -260 -61 -14 -1 -31 -6 -38 -10 -7 -4 -12 -5 -12 -2 0 2
-15 0 -32 -5 -48 -14 -166 -32 -298 -45 -109 -11 -255 -4 -300 13 -21 9 -29 6
-49 -16 -13 -14 -37 -41 -54 -59 l-31 -32 24 -18 c45 -31 99 -45 225 -56 17
-1 36 2 43 7 7 6 12 6 12 0 0 -9 22 -9 155 3 44 4 88 7 98 8 9 0 17 3 17 6 0
3 12 5 26 5 14 -1 76 9 137 21 61 13 123 25 137 28 14 2 32 7 40 10 17 6 68
17 88 18 6 1 12 5 12 9 0 5 6 6 13 4 6 -3 44 4 82 16 39 11 80 22 92 25 12 2
33 8 45 13 13 5 25 9 28 9 3 0 12 3 20 6 39 12 89 27 106 31 10 2 53 16 94 30
41 15 82 28 90 30 26 6 262 86 300 102 8 3 18 7 23 8 4 2 8 3 10 5 1 1 9 3 17
5 8 2 59 21 113 41 78 30 96 41 91 53 -4 9 -14 36 -23 61 -14 40 -34 71 -43
69 -2 0 -10 -3 -18 -6z"/>
</g>
</svg>
